<svg height="128" width="128" xmlns="http://www.w3.org/2000/svg">
  <rect fill="#33d17a" height="104" rx="8" width="104" x="12" y="15.000002"/>
  <path d="m20.000009 15h88.000001c4.432 0 8 3.568 8 8v5h-104.000001v-5c0-4.432 3.568-8 8-8z" opacity=".8"/>
  <g fill="#fff">
    <rect height="3" rx="1" width="3" x="62.5" y="20.000002"/>
    <rect height="3" rx="1" width="3" x="67.5" y="20.000002"/>
    <rect height="3" rx="1" width="3" x="57.5" y="20.000002"/>
    <path d="m51.990234 51a9.0000086 9.0000086 0 0 0 -8.990234 9 9.0000086 9.0000086 0 0 0 9 9 9.0000086 9.0000086 0 0 0 9-9 9.0000086 9.0000086 0 0 0 -9-9 9.0000086 9.0000086 0 0 0 -.009766 0zm33.009766 0-16 9 16 9z"/>
  </g>
  <path d="m25 47v26h10v-4h-6v-18h6v-4zm68 0v4h6v18h-6v4h10v-26z" opacity=".8"/>
  <path d="m20.000009 119h88.000001c4.432 0 8-3.568 8-8v-20h-104.000001v20c0 4.432 3.568 8 8 8z" opacity=".8"/>
  <path d="m93.660156 97v4.46875c-.556834-.63249-1.253317-.94922-2.085937-.94922-.71904 0-1.336464.18751-1.855469.56055-.51356.37303-.905437.8965-1.175781 1.57226-.2649.67577-.398438 1.45953-.398438 2.35157v.16992c0 .85956.133538 1.62451.398438 2.29492.270344.67033.662221 1.1981 1.175781 1.58203.519005.37839 1.131599.56836 1.839844.56836.90828 0 1.649583-.36824 2.222656-1.10352l.121094.94141h2.207031v-12.45703zm-34.558594 1.507812v2.173828h-1.240234v1.78516h1.240234v4.52343c.000001 1.75161.860952 2.62891 2.580079 2.62891.540687 0 1.021697-.0772 1.443359-.22852v-1.83984c-.189241.0378-.416741.05664-.681641.05664-.324319 0-.554281-.06312-.689453-.1875-.135172-.12973-.203125-.36689-.203125-.71289v-4.24023h1.476563v-1.78516h-1.476563v-2.173828zm-23.40625 2.011718c-.713688 0-1.337803.12439-1.873046.37305-.535151.24875-.94584.58183-1.232422.99804-.281139.41632-.421875.87173-.421875 1.36915 0 1.34618 1.037264 2.24229 3.113281 2.68554.470379.10279.831833.2059 1.085938.3086.259455.10269.437814.21309.535156.33203.102693.11358.154297.25432.154297.42187 0 .27035-.112774.48623-.339844.64844-.221626.15676-.540721.23437-.957031.23437-.448697 0-.817026-.09879-1.103516-.29882-.286215-.20548-.436518-.51975-.453125-.94141h-2.3125c0 .49197.149888.96578.447266 1.41992.302729.45414.739427.82721 1.3125 1.11914.578424.2865 1.263387.42969 2.052734.42969.746075 0 1.400613-.11719 1.962891-.34961.567629-.23251 1.001958-.5516 1.304687-.95703.308173-.41096.462891-.87316.462891-1.38672 0-.56763-.143197-1.03466-.429688-1.40234-.281138-.3676-.663356-.6539-1.144531-.85938-.481175-.21083-1.06776-.38199-1.759766-.51172-.578424-.10813-.989113-.23971-1.232421-.39648-.237867-.15676-.355469-.36308-.355469-.61719 0-.2649.103622-.48079.314453-.64844.216275-.16756.50453-.25195.861328-.25195.432457 0 .75392.10075.964844.30078.210831.1946.316406.46692.316406.81836h2.449219c0-.55148-.152349-1.03969-.455078-1.4668-.30273-.43245-.734597-.76799-1.296875-1.00585-.562278-.24332-1.219278-.36524-1.970704-.36524zm17.486329 0c-.713597 0-1.337805.12439-1.873047.37305-.535244.24875-.947885.58183-1.234375.99804-.281139.41632-.419922.87173-.419922 1.36915 0 1.34618 1.037264 2.24229 3.113281 2.68554.470379.10279.831833.2059 1.085938.3086.259456.10269.437814.21309.535156.33203.102693.11358.154297.25432.154297.42187 0 .27035-.112774.48623-.339844.64844-.221626.15676-.540721.23437-.957031.23437-.448697 0-.816933-.09879-1.103516-.29882-.286123-.20548-.436518-.51975-.453125-.94141h-2.3125c0 .49197.14998.96578.447266 1.41992.302822.45414.739427.82721 1.3125 1.11914.578424.2865 1.263387.42969 2.052734.42969.746075 0 1.400613-.11719 1.962891-.34961.567629-.23251 1.001958-.5516 1.304687-.95703.308174-.41096.462891-.87316.462891-1.38672 0-.56763-.143197-1.03466-.429688-1.40234-.281138-.3676-.663356-.6539-1.144531-.85938-.481175-.21083-1.06776-.38199-1.759765-.51172-.578517-.10813-.989206-.23971-1.232422-.39648-.237866-.15676-.357422-.36308-.357422-.61719 0-.2649.105575-.48079.316406-.64844.216275-.16756.50453-.25195.861328-.25195.432458 0 .754013.10075.964844.30078.210923.1946.316406.46692.316406.81836h2.447266c0-.55148-.150396-1.03969-.453125-1.4668-.302822-.43245-.73469-.76799-1.296875-1.00585-.562278-.24332-1.219185-.36524-1.970703-.36524zm15.207031 0c-.848768 0-1.585334.19471-2.207031.58399-.62179.38382-1.096018.9189-1.425782 1.60546-.329764.68666-.496093 1.46795-.496093 2.34375v.3086c0 .784.175897 1.4997.527343 2.14844.356798.64872.865863 1.16252 1.525391 1.54101.664971.37839 1.446265.56836 2.34375.56836.794699 0 1.48686-.15234 2.076172-.45508.594663-.30272 1.045342-.67579 1.353516-1.11914l-1.175782-1.35351c-.254104.31896-.561587.55849-.923828.7207-.356799.15676-.746307.23633-1.167969.23633-.567721 0-1.032382-.15955-1.394531-.47852-.361873-.32441-.589373-.7606-.68164-1.30664h5.546874v-1.03711c0-.8758-.152348-1.63592-.455078-2.27929-.302821-.64874-.74621-1.14865-1.330078-1.5-.583868-.35145-1.288057-.52735-2.115234-.52735zm10.371094 0c-.535244 0-1.016254.10074-1.44336.30078-.421662.1946-.778378.47412-1.070312.8418l-.082032-.98047h-2.294921v8.77344h2.449218v-6.16211c.140616-.2541.323804-.44881.550782-.58399.232513-.14052.504834-.21093.818359-.21093.281139 0 .511008.03989.689453.12109.183797.0811.324532.2243.421875.42969.097249.20548.146484.49373.146484.86133v5.54687h2.449219v-5.85547c0-.08657-.004445-.1497-.013672-.1875.135172-.29193.318268-.51511.550782-.67187.232421-.16221.513986-.24414.84375-.24414.275787 0 .503288.03762.68164.11328.183797.07575.324533.21649.421875.42187.097342.20004.146485.48397.146485.85157v5.57226h2.447265v-5.56445c0-1.18942-.241989-2.04833-.728515-2.57813-.485495-.52857-1.173452-.7937-2.0625-.79492h-.001953c-.572236.00028-1.07876.11737-1.521485.34961-.437901.22698-.803676.55336-1.095703.98047-.210831-.44869-.513575-.78177-.908203-.99805-.389276-.22162-.853937-.33203-1.394531-.33203zm-30.064454.16211-2.61914.00391-1.582031 5.32031-1.564453-5.32031h-2.626954l3.064454 8.8164-.242188.64063c-.113489.30817-.279819.52889-.496094.66406-.216274.13517-.542567.20313-.980468.20313-.162114 0-.28404-.00448-.365235-.01368v1.84961c.232514.06.413241.0999.542969.1211.135172.02213.3087.0332.519531.0332.583869 0 1.067247-.1171 1.451172-.34961.383832-.22707.676917-.50185.876953-.82617.200036-.31897.366874-.67086.501953-1.05469zm19.677735 1.80859c.497414 0 .868527.13828 1.117187.41407.253827.27569.387365.65122.398438 1.12695v.19336h-3.123047c.081103-.54059.25217-.96331.511719-1.27149.264899-.30817.630768-.46289 1.095703-.46289zm23.826172.00782c.692005 0 1.179799.29308 1.460937.87695v3.38867c-.297377.58387-.79.875-1.476562.875-.556834 0-.962693-.22081-1.216797-.66406-.248661-.44879-.373047-1.04936-.373047-1.80078v-.16992c0-.76222.126847-1.37008.380859-1.82422.259548-.45414.667776-.68164 1.22461-.68164z" fill="#fff"/>
</svg>
