<svg height="128" width="128" xmlns="http://www.w3.org/2000/svg" xmlns:xlink="http://www.w3.org/1999/xlink">
  <linearGradient id="a" gradientTransform="matrix(-.19999997 0 0 .19999997 25.172588 -47.799999)" gradientUnits="userSpaceOnUse" x1="19.874987" x2="19.874987" xlink:href="#c" y1="38.245197" y2="-61.256123"/>
  <linearGradient id="b" gradientTransform="matrix(-.17777775 0 0 .17777775 24.486744 -47.377777)" gradientUnits="userSpaceOnUse" x1="19.874987" x2="19.874987" xlink:href="#c" y1="38.245197" y2="-61.256123"/>
  <linearGradient id="c">
    <stop offset="0" stop-color="#367c52"/>
    <stop offset="1" stop-color="#5eca91"/>
  </linearGradient>
  <rect fill="#33d17a" height="104" rx="6.058252" width="104" x="12" y="15"/>
  <path d="m18.058253 15h91.883497c3.35627 0 6.05825 2.792348 6.05825 6.260869v5.739131h-104v-5.739131c0-3.468521 2.70198-6.260869 6.058253-6.260869z" opacity=".8"/>
  <path d="m18.058253 119h91.883497c3.35627 0 6.05825-2.79235 6.05825-6.26087v-21.73913h-104v21.73913c0 3.46852 2.70198 6.26087 6.058253 6.26087z" opacity=".8"/>
  <g transform="translate(40 65)">
    <path d="m20.412268-46h-2.824538c-.325601 0-.58773.262128-.58773.587732v2.824536c0 .325604.262129.587732.58773.587732h2.824538c.325599 0 .58773-.262128.58773-.587732v-2.824536c0-.325604-.262131-.587732-.58773-.587732z" fill="url(#a)" opacity=".15"/>
    <path d="m20.25535-45.777778h-2.510701c-.289424 0-.522427.233003-.522427.522428v2.5107c0 .289425.233003.522428.522427.522428h2.510701c.289421 0 .522426-.233003.522426-.522428v-2.5107c0-.289425-.233005-.522428-.522426-.522428z" fill="url(#b)" opacity=".3"/>
    <path d="m20.157689-45.446061h-2.315382c-.159755 0-.288371.128615-.288371.288372v2.315378c0 .159758.128616.288372.288371.288372h2.315382c.159759 0 .288373-.128614.288373-.288372v-2.315378c0-.159757-.128614-.288372-.288373-.288372z" fill="#f7f7f7" stroke="#fff" stroke-width=".218983"/>
  </g>
  <g transform="translate(45 65)">
    <path d="m20.412268-46h-2.824538c-.325601 0-.58773.262128-.58773.587732v2.824536c0 .325604.262129.587732.58773.587732h2.824538c.325599 0 .58773-.262128.58773-.587732v-2.824536c0-.325604-.262131-.587732-.58773-.587732z" fill="url(#a)" opacity=".15"/>
    <path d="m20.25535-45.777778h-2.510701c-.289424 0-.522427.233003-.522427.522428v2.5107c0 .289425.233003.522428.522427.522428h2.510701c.289421 0 .522426-.233003.522426-.522428v-2.5107c0-.289425-.233005-.522428-.522426-.522428z" fill="url(#b)" opacity=".3"/>
    <path d="m20.157689-45.446061h-2.315382c-.159755 0-.288371.128615-.288371.288372v2.315378c0 .159758.128616.288372.288371.288372h2.315382c.159759 0 .288373-.128614.288373-.288372v-2.315378c0-.159757-.128614-.288372-.288373-.288372z" fill="#f7f7f7" stroke="#fff" stroke-width=".218983"/>
  </g>
  <g transform="translate(50 65)">
    <path d="m20.412268-46h-2.824538c-.325601 0-.58773.262128-.58773.587732v2.824536c0 .325604.262129.587732.58773.587732h2.824538c.325599 0 .58773-.262128.58773-.587732v-2.824536c0-.325604-.262131-.587732-.58773-.587732z" fill="url(#a)" opacity=".15"/>
    <path d="m20.25535-45.777778h-2.510701c-.289424 0-.522427.233003-.522427.522428v2.5107c0 .289425.233003.522428.522427.522428h2.510701c.289421 0 .522426-.233003.522426-.522428v-2.5107c0-.289425-.233005-.522428-.522426-.522428z" fill="url(#b)" opacity=".3"/>
    <path d="m20.157689-45.446061h-2.315382c-.159755 0-.288371.128615-.288371.288372v2.315378c0 .159758.128616.288372.288371.288372h2.315382c.159759 0 .288373-.128614.288373-.288372v-2.315378c0-.159757-.128614-.288372-.288373-.288372z" fill="#f7f7f7" stroke="#fff" stroke-width=".218983"/>
  </g>
  <g transform="translate(90.77369 -102.36762)">
    <path d="m-69.773892 148.36762v26.00012h10.000047v-4.00002h-6.000028v-18.00008h6.000028v-4.00002z" opacity=".8"/>
    <path d="m6.2264655 148.36762v4.00002h6.0000285v18.00008h-6.0000285v4.00002h10.0000475v-26.00012z" opacity=".8"/>
    <g fill="#fff">
      <path d="m-21.772466 161.36808 16.0000751-9.00004v18.00008z"/>
      <circle cx="-38.772789" cy="161.36774" r="9.000009"/>
    </g>
  </g>
  <g fill="#fff" stroke-width=".499998" transform="matrix(1.3840112 0 0 1.3840112 -3106.9763 -4589.2889)">
    <path d="m2270.3989 3392.4824q-2.25-.4804-2.25-1.9394 0-.5391.3047-.9903.3106-.4511.8906-.7207.5801-.2695 1.3536-.2695.8144 0 1.4238.2637.6094.2578.9375.7265.3281.4629.3281 1.0606h-1.7695q0-.3809-.2285-.5918-.2286-.2168-.6973-.2168-.3867 0-.6211.1816-.2285.1817-.2285.4688 0 .2754.2578.4453.2637.1699.8906.2871.75.1406 1.2715.3691.5215.2227.8262.6211.3105.3985.3105 1.0137 0 .5566-.334 1.002-.3281.4394-.9433.6914-.6094.2519-1.418.2519-.8555 0-1.4824-.3105-.6211-.3164-.9492-.8086-.3223-.4922-.3223-1.0254h1.6699q.018.457.3282.6797.3105.2168.7968.2168.4512 0 .6914-.1699.2461-.1758.2461-.4688 0-.1816-.1113-.3047-.1055-.1289-.3867-.2402-.2754-.1113-.7852-.2227z"/>
    <path d="m2280.0911 3388.6797-2.543 7.2891q-.1464.416-.3632.7617-.2168.3515-.6328.5976-.4161.252-1.0489.252-.2285 0-.375-.024-.1406-.023-.3926-.088v-1.336q.088.01.2637.01.4746 0 .709-.1465.2344-.1465.3574-.4805l.1758-.4629-2.2148-6.3691h1.8984l1.1309 3.8437 1.1425-3.8437z"/>
    <path d="m2283.0333 3392.4824q-2.25-.4804-2.25-1.9394 0-.5391.3047-.9903.3105-.4511.8906-.7207.5801-.2695 1.3535-.2695.8145 0 1.4239.2637.6093.2578.9375.7265.3281.4629.3281 1.0606h-1.7695q0-.3809-.2286-.5918-.2285-.2168-.6972-.2168-.3867 0-.6211.1816-.2285.1817-.2285.4688 0 .2754.2578.4453.2636.1699.8906.2871.75.1406 1.2715.3691.5215.2227.8262.6211.3105.3985.3105 1.0137 0 .5566-.334 1.002-.3281.4394-.9433.6914-.6094.2519-1.418.2519-.8555 0-1.4824-.3105-.6211-.3164-.9493-.8086-.3222-.4922-.3222-1.0254h1.6699q.018.457.3281.6797.3106.2168.7969.2168.4512 0 .6914-.1699.2461-.1758.2461-.4688 0-.1816-.1113-.3047-.1055-.1289-.3867-.2402-.2754-.1113-.7852-.2227z"/>
    <path d="m2290.0243 3393.6836q.2871 0 .4922-.041v1.3301q-.457.164-1.043.164-1.8632 0-1.8632-1.8984v-3.2695h-.8965v-1.2891h.8965v-1.5703h1.7695v1.5703h1.0664v1.2891h-1.0664v3.0644q0 .375.1465.5156.1465.1348.498.1348z"/>
    <path d="m2297.1384 3392.4238h-4.0078q.1.5918.4922.9434.3925.3457 1.0078.3457.457 0 .8437-.1699.3926-.1758.668-.5215l.8496.9785q-.334.4805-.9785.8086-.6387.3281-1.5.3281-.9727 0-1.6934-.4101-.7148-.4102-1.1015-1.1133-.3809-.7031-.3809-1.5528v-.2226q0-.9492.3574-1.6934.3574-.7441 1.0313-1.1601.6738-.4219 1.5937-.4219.8965 0 1.5293.3809.6328.3808.961 1.0839.3281.6973.3281 1.6465zm-1.7344-1.3242q-.012-.5156-.2871-.8144-.2695-.2989-.8086-.2989-.5039 0-.791.334-.2813.334-.3692.9199h2.2559z"/>
    <path d="m2305.3657 3388.5625q.9668 0 1.4942.5742.5273.5742.5273 1.8633v4.0195h-1.7695v-4.0254q0-.3984-.1055-.6152-.1055-.2226-.3047-.3047-.1933-.082-.4922-.082-.3574 0-.6093.1758-.252.1699-.3985.4863.01.041.01.1348v4.2304h-1.7696v-4.0078q0-.3984-.1054-.6211-.1055-.2226-.3047-.3105-.1934-.088-.4981-.088-.3398 0-.5918.1523-.246.1465-.3984.4219v4.4531h-1.7695v-6.3398h1.6582l.059.709q.3164-.3985.7734-.6094.4629-.2168 1.043-.2168.5859 0 1.0078.2402.4277.2344.6562.7207.3165-.4629.7911-.7089.4804-.252 1.1015-.252z"/>
    <path d="m2314.3489 3386.0195v9h-1.5937l-.088-.6797q-.6211.7969-1.6055.7969-.7676 0-1.3301-.4101-.5566-.4161-.8496-1.1426-.2871-.7266-.2871-1.6582v-.1231q0-.9668.2871-1.6992.293-.7324.8496-1.1367.5625-.4043 1.3418-.4043.9024 0 1.5059.6855v-3.2285zm-2.8359 7.6875q.7441 0 1.0664-.6328v-2.4492q-.3047-.6328-1.0547-.6328-.6035 0-.8848.4922-.2753.4922-.2753 1.3183v.1231q0 .8144.2695 1.3008.2754.4804.8789.4804z"/>
  </g>
</svg>
